<?xml version="1.0" standalone="no"?>
<!DOCTYPE svg PUBLIC "-//W3C//DTD SVG 20010904//EN"
 "http://www.w3.org/TR/2001/REC-SVG-20010904/DTD/svg10.dtd">
<svg version="1.0" xmlns="http://www.w3.org/2000/svg"
 width="1000.000000pt" height="1000.000000pt" viewBox="0 0 1000.000000 1000.000000"
 preserveAspectRatio="xMidYMid meet">
<metadata>
Created by potrace 1.14, written by Peter Selinger 2001-2017
</metadata>
<g transform="translate(0.000000,1000.000000) scale(0.100000,-0.100000)"
fill="#000000" stroke="none">
<path d="M4828 8782 l-48 -3 0 -700 0 -700 53 3 52 3 3 653 2 654 165 -4 165
-3 0 48 0 47 -97 2 c-177 3 -247 3 -295 0z"/>
<path d="M5850 7920 l0 -750 41 -25 c22 -15 47 -29 55 -32 12 -4 14 95 14 706
0 483 3 711 10 711 27 0 261 -100 396 -169 760 -390 1326 -1102 1528 -1921 69
-281 80 -378 80 -720 0 -267 -2 -323 -22 -445 -153 -971 -747 -1787 -1615
-2220 -134 -67 -343 -155 -367 -155 -6 0 -10 234 -10 620 0 341 -2 620 -5 620
-3 0 -27 -14 -55 -31 l-50 -31 0 -658 0 -659 113 38 c924 313 1634 1017 1940
1923 116 341 162 631 161 1008 -1 243 -16 395 -60 610 -218 1060 -985 1929
-2011 2280 l-143 49 0 -749z"/>
<path d="M3980 8611 c-594 -212 -1092 -583 -1462 -1091 -780 -1073 -780 -2536
0 -3610 376 -517 897 -899 1506 -1106 55 -19 106 -34 113 -34 9 0 13 15 13 48
l0 48 -57 18 c-112 35 -290 109 -424 177 -572 289 -1027 746 -1318 1322 -158
313 -265 682 -301 1032 -14 139 -14 470 0 600 94 871 532 1619 1248 2132 220
158 532 315 780 394 l72 23 0 48 c0 39 -3 48 -17 47 -10 0 -79 -22 -153 -48z"/>
<path d="M4040 7113 c-121 -79 -211 -155 -320 -270 -238 -248 -398 -566 -460
-913 -32 -174 -32 -424 -1 -595 46 -256 158 -529 298 -725 84 -116 241 -282
348 -365 90 -71 218 -155 234 -155 7 0 11 27 10 73 l0 72 -72 47 c-218 143
-432 393 -553 644 -121 252 -176 549 -154 823 41 507 287 935 708 1232 l72 50
0 70 c0 49 -4 69 -12 69 -7 -1 -51 -26 -98 -57z"/>
<path d="M4780 2698 l0 -48 220 0 220 0 0 48 0 47 -220 0 -220 0 0 -47z"/>
<path d="M2075 1705 c-51 -18 -110 -81 -124 -131 -7 -25 -11 -175 -11 -406 l0
-368 30 0 c47 0 107 36 137 82 22 33 28 56 33 122 l5 81 371 5 370 5 59 30
c45 23 66 42 90 79 30 49 30 50 30 195 0 132 -2 150 -22 188 -26 49 -71 85
-134 110 -38 15 -91 18 -419 20 -308 2 -382 0 -415 -12z m771 -178 c22 -26 24
-37 24 -128 0 -163 5 -162 -440 -157 l-285 3 -3 134 c-2 127 -1 135 20 158
l22 24 319 -3 319 -3 24 -28z"/>
<path d="M3585 1711 c-11 -5 -27 -17 -36 -27 -24 -27 -629 -873 -629 -879 0
-3 49 -5 108 -5 l108 0 244 342 c135 188 250 343 257 345 16 6 14 9 272 -357
l228 -325 112 -3 c61 -1 111 -1 111 2 0 10 -619 872 -639 890 -23 21 -104 31
-136 17z"/>
<path d="M4555 1701 c-49 -22 -79 -54 -100 -103 -13 -32 -15 -97 -15 -418 l0
-380 33 0 c37 0 97 34 125 70 32 42 42 88 42 191 l0 99 253 0 252 0 68 -110
c80 -128 128 -179 204 -216 49 -25 163 -46 163 -31 0 3 -48 81 -106 173 -58
93 -108 173 -111 180 -2 7 12 14 37 18 90 14 154 67 180 149 8 25 11 77 8 142
-5 132 -25 167 -125 217 l-68 33 -400 3 c-374 2 -403 1 -440 -17z m817 -169
c20 -19 23 -33 23 -92 0 -59 -3 -73 -23 -92 -22 -23 -23 -23 -377 -26 l-355
-3 0 102 c0 153 -33 140 372 137 336 -3 338 -3 360 -26z"/>
<path d="M5910 1706 c-71 -16 -110 -37 -148 -80 -38 -44 -52 -91 -52 -181 0
-98 15 -143 64 -191 72 -73 97 -77 511 -81 220 -2 370 -8 387 -14 48 -19 66
-134 29 -180 l-19 -24 -472 -3 -472 -3 6 -30 c3 -17 15 -44 27 -60 43 -61 36
-60 522 -57 425 3 444 4 487 24 98 46 130 104 130 238 0 108 -18 157 -75 203
-69 58 -113 63 -497 63 -356 0 -399 4 -418 40 -6 10 -10 43 -10 74 0 121 -22
116 511 116 l442 0 -7 33 c-7 38 -31 73 -70 101 -27 20 -41 21 -424 23 -285 1
-413 -2 -452 -11z"/>
<path d="M7113 1704 c-61 -30 -63 -42 -63 -449 0 -305 2 -371 15 -395 32 -62
19 -60 484 -60 421 0 425 0 457 22 39 27 64 67 64 102 l0 26 -388 0 c-335 0
-391 2 -410 16 -20 14 -22 23 -22 110 l0 94 370 0 c357 0 371 1 390 20 14 14
20 33 20 64 0 78 9 76 -412 76 l-368 0 0 99 c0 77 4 103 16 115 13 14 65 16
410 16 l394 0 0 28 c0 42 -36 91 -83 112 -39 18 -69 20 -442 20 -343 0 -405
-3 -432 -16z"/>
</g>
</svg>
